<svg width="41" height="41" viewBox="0 0 41 41" fill="none" xmlns="http://www.w3.org/2000/svg">
<g clip-path="url(#clip0_0_102)">
<path d="M35.0281 0.216797H6.6683C3.42844 0.216797 0.792664 2.84528 0.792664 6.07617V34.3574C0.792664 37.5883 3.42844 40.2168 6.6683 40.2168H35.0281C38.2679 40.2168 40.9037 37.5883 40.9037 34.3574V6.07617C40.9037 2.84528 38.2679 0.216797 35.0281 0.216797ZM38.5534 34.3574C38.5534 36.2959 36.9719 37.873 35.0281 37.873H6.6683C4.72445 37.873 3.14292 36.2959 3.14292 34.3574V6.07617C3.14292 4.1377 4.72445 2.56055 6.6683 2.56055H35.0281C36.9719 2.56055 38.5534 4.1377 38.5534 6.07617V34.3574Z" fill="#070707" stroke="#070707" stroke-width="0.5"/>
<path d="M19.673 16.7012C19.673 14.1163 17.5645 12.0137 14.9725 12.0137H7.92175V28.4199H14.9725C17.5645 28.4199 19.673 26.3173 19.673 23.7324C19.673 22.3335 19.0546 21.0765 18.0765 20.2168C19.0546 19.3571 19.673 18.1001 19.673 16.7012ZM17.3228 23.7324C17.3228 25.0248 16.2685 26.0762 14.9725 26.0762H10.272V21.3887H14.9725C16.2685 21.3887 17.3228 22.44 17.3228 23.7324ZM10.272 19.0449V14.3574H14.9725C16.2685 14.3574 17.3228 15.4088 17.3228 16.7012C17.3228 17.9936 16.2685 19.0449 14.9725 19.0449H10.272Z" fill="#070707" stroke="#070707" stroke-width="0.5"/>
<path d="M27.899 16.7012C24.6591 16.7012 22.0233 19.3297 22.0233 22.5605C22.0233 25.7914 24.6591 28.4199 27.899 28.4199C29.99 28.4199 31.94 27.2978 32.9878 25.4911L30.9534 24.3174C30.3242 25.4023 29.1537 26.0762 27.899 26.0762C26.3667 26.0762 25.06 25.0966 24.5749 23.7324H33.7746V22.5605C33.7746 19.3297 31.1388 16.7012 27.899 16.7012ZM24.5749 21.3887C25.06 20.0245 26.3667 19.0449 27.899 19.0449C29.4312 19.0449 30.7379 20.0245 31.223 21.3887H24.5749Z" fill="#070707" stroke="#070707" stroke-width="0.5"/>
<path d="M23.1984 12.0137H32.5994V14.3574H23.1984V12.0137Z" fill="#070707" stroke="#070707" stroke-width="0.5"/>
</g>
<defs>
<clipPath id="clip0_0_102">
<rect width="40.111" height="40" fill="white" transform="translate(0.792664 0.216797)"/>
</clipPath>
</defs>
</svg>
